<svg width="24" height="24" viewBox="0 0 24 24" fill="none" xmlns="http://www.w3.org/2000/svg">
<path d="M1.92001 11C1.36773 11 0.920013 11.4477 0.920013 12C0.920013 12.5523 1.36773 13 1.92001 13V11ZM22.7871 12.7071C23.1776 12.3166 23.1776 11.6834 22.7871 11.2929L16.4232 4.92893C16.0326 4.53841 15.3995 4.53841 15.0089 4.92893C14.6184 5.31946 14.6184 5.95262 15.0089 6.34315L20.6658 12L15.0089 17.6569C14.6184 18.0474 14.6184 18.6805 15.0089 19.0711C15.3995 19.4616 16.0326 19.4616 16.4232 19.0711L22.7871 12.7071ZM1.92001 13H22.08V11H1.92001V13Z" fill="#494037"/>
</svg>
