<svg width="20" height="20" viewBox="0 0 20 20" fill="none" xmlns="http://www.w3.org/2000/svg">
<path fill-rule="evenodd" clip-rule="evenodd" d="M6.24001 2.73452L8.74994 5.39776C9.06098 5.72803 9.0612 6.24553 8.75043 6.57606L7.53713 7.86652C8.29897 10.1957 10.0027 12.059 12.162 12.9401L12.4038 13.0339L13.5539 11.8107C13.8769 11.4671 14.4154 11.4523 14.7566 11.7775L17.2666 14.4407C17.5776 14.771 17.5778 15.2885 17.2671 15.619L16.6429 16.2829C15.503 17.4953 13.7669 17.8371 12.2422 17.1491C10.0868 16.1766 8.34768 14.9881 7.0247 13.5833C5.70172 12.1786 4.58178 10.3314 3.66489 8.04174C3.04219 6.48677 3.31228 4.72404 4.34344 3.51282L4.47629 3.36434L5.03723 2.76773C5.36026 2.42416 5.89876 2.40929 6.24001 2.73452Z" stroke="#DDA79D" stroke-width="1.5" stroke-linecap="round" stroke-linejoin="round"/>
</svg>
