<svg width="20" height="20" viewBox="0 0 20 20" fill="none" xmlns="http://www.w3.org/2000/svg">
<path fill-rule="evenodd" clip-rule="evenodd" d="M4.91667 7.49996C4.91667 5.79838 5.50065 4.54705 6.3875 3.71769C7.28232 2.88086 8.54719 2.41663 10 2.41663C11.451 2.41663 12.7162 2.88455 13.6119 3.72421C14.4999 4.5567 15.0833 5.80877 15.0833 7.49996C15.0833 9.97587 13.741 12.5232 12.3077 14.5173C11.6008 15.5007 10.8926 16.3212 10.361 16.8956C10.2285 17.0388 10.1072 17.1664 10 17.2771C9.89277 17.1664 9.7715 17.0388 9.63901 16.8956C9.10746 16.3212 8.39921 15.5007 7.69234 14.5173C6.25903 12.5232 4.91667 9.97587 4.91667 7.49996ZM9.4903 18.8835C9.49048 18.8836 9.49063 18.8838 10 18.3333L9.49063 18.8838C9.77812 19.1498 10.2219 19.1498 10.5094 18.8838L10 18.3333C10.5094 18.8838 10.5095 18.8836 10.5097 18.8835L10.5102 18.883L10.5115 18.8818L10.5158 18.8778L10.5305 18.864C10.5431 18.8522 10.561 18.8353 10.5839 18.8134C10.6297 18.7695 10.6957 18.7057 10.7788 18.6232C10.9451 18.4583 11.1804 18.2186 11.4619 17.9144C12.0241 17.3069 12.7742 16.4382 13.5257 15.3928C15.009 13.3291 16.5833 10.4598 16.5833 7.49996C16.5833 5.44114 15.8609 3.77655 14.6377 2.62987C13.4222 1.49037 11.7706 0.916626 10 0.916626C8.23116 0.916626 6.57936 1.48453 5.36294 2.62212C4.13853 3.76716 3.41667 5.4325 3.41667 7.49996C3.41667 10.4598 4.99098 13.3291 6.47434 15.3928C7.2258 16.4382 7.97588 17.3069 8.53808 17.9144C8.81957 18.2186 9.05495 18.4583 9.22119 18.6232C9.30434 18.7057 9.37028 18.7695 9.41612 18.8134C9.43905 18.8353 9.45696 18.8522 9.46949 18.864L9.48422 18.8778L9.48849 18.8818L9.48983 18.883L9.4903 18.8835ZM8.25001 7.49996C8.25001 6.53346 9.03351 5.74996 10 5.74996C10.9665 5.74996 11.75 6.53346 11.75 7.49996C11.75 8.46646 10.9665 9.24996 10 9.24996C9.03351 9.24996 8.25001 8.46646 8.25001 7.49996ZM10 4.24996C8.20508 4.24996 6.75001 5.70503 6.75001 7.49996C6.75001 9.29488 8.20508 10.75 10 10.75C11.7949 10.75 13.25 9.29488 13.25 7.49996C13.25 5.70503 11.7949 4.24996 10 4.24996Z" fill="#DDA79D"/>
</svg>
